<svg width="120" height="24" viewBox="0 0 120 24" fill="none" xmlns="http://www.w3.org/2000/svg">
<g clip-path="url(#clip0_64440_51559)">
<path d="M64 4.8297V19.1691C64 19.312 63.8886 19.4274 63.7505 19.4274H62.3543C61.9956 19.4274 61.6521 19.2808 61.3979 19.0189L50.4129 7.71295V19.1703C50.4129 19.3132 50.3015 19.4286 50.1634 19.4286H48.2495C48.1114 19.4286 48 19.3132 48 19.1703V4.8297C48 4.68674 48.1114 4.57141 48.2495 4.57141H50.1018C50.4605 4.57141 50.8052 4.71918 51.0593 4.98227L61.5651 15.8413V4.8297C61.5651 4.68674 61.6765 4.57141 61.8146 4.57141H63.7493C63.8874 4.57141 63.9988 4.68674 63.9988 4.8297H64Z" fill="#0A0D11"/>
<path d="M82.8571 17.4594V19.1702C82.8571 19.3132 82.7432 19.4286 82.6019 19.4286H68.7338C68.3289 19.4286 68 19.0958 68 18.6861V5.31391C68 4.90421 68.3289 4.57141 68.7338 4.57141H82.3917C82.533 4.57141 82.647 4.68675 82.647 4.82972V6.54059C82.647 6.68356 82.533 6.7989 82.3917 6.7989H70.4958V10.7685H80.5038C80.6451 10.7685 80.7591 10.8838 80.7591 11.0268V12.7377C80.7591 12.8806 80.6451 12.996 80.5038 12.996H70.4958V17.1987H82.6019C82.7432 17.1987 82.8571 17.314 82.8571 17.457V17.4594Z" fill="#0A0D11"/>
<path d="M94.0951 11.9153L100.523 19.1114C100.631 19.2327 100.547 19.4286 100.388 19.4286H97.9009C97.7715 19.4286 97.648 19.3733 97.5594 19.2748L92.5092 13.656L87.7048 18.9817C87.4473 19.2676 87.0861 19.4286 86.7085 19.4286H84.7555C84.5959 19.4286 84.512 19.2327 84.6204 19.1114L91.027 11.9369L84.6844 4.89097C84.5749 4.76963 84.6588 4.57261 84.8196 4.57261H87.3051C87.4345 4.57261 87.558 4.62787 87.6454 4.72518L92.6339 10.2598L97.3357 5.02192C97.5932 4.7348 97.9556 4.57141 98.3343 4.57141H100.302C100.463 4.57141 100.546 4.76843 100.436 4.88977L94.0951 11.9153Z" fill="#0A0D11"/>
<path d="M101.678 12C101.678 7.01866 105.165 4 110.817 4C116.469 4 119.955 7.01866 119.955 12C119.955 16.9813 116.468 20 110.817 20C105.167 20 101.678 16.9813 101.678 12ZM117.371 12C117.371 8.33474 114.809 6.28537 110.817 6.28537C106.826 6.28537 104.242 8.33353 104.242 12C104.242 15.6665 106.805 17.7146 110.817 17.7146C114.83 17.7146 117.371 15.6665 117.371 12Z" fill="#0A0D11"/>
</g>
<path d="M35.9352 0.655199C35.8823 0.573599 35.8029 0.5184 35.7115 0.4992L34.8356 0.311997C34.6648 0.311997 34.53 0.427197 34.5084 0.585597L32.2466 12.4632C32.2032 12.6144 31.9602 12.5856 31.9722 12.42V12.4152L32.6676 0.338397C32.6676 0.165597 32.5401 0.0263971 32.3765 0.0119971C32.3019 0.00239707 32.2177 0 32.1238 0C31.9602 0 31.8279 0.124799 31.8134 0.287999L30.6103 14.2416C30.6007 14.4168 30.3625 14.4072 30.3457 14.2488L29.5853 0.467999C29.5733 0.321599 29.4554 0.211198 29.2629 0.211198C29.2581 0.211198 29.0776 0.24 29.0776 0.24C28.9429 0.2544 28.8394 0.374397 28.8394 0.518397L29.0656 15.2592C29.0608 15.4224 28.8274 15.4416 28.7985 15.2736L26.3514 1.3752C26.3297 1.2192 26.1998 1.1064 26.0434 1.1064C26.0049 1.1064 25.9664 1.1136 25.887 1.1472C25.7378 1.2072 25.6584 1.344 25.6849 1.4784L27.5521 15.972C27.5641 16.1352 27.3331 16.1808 27.285 16.0248L23.0838 3.0744C23.0357 2.952 22.925 2.8752 22.7974 2.8752C22.7349 2.8752 22.6747 2.8944 22.6266 2.9304C22.54 2.988 22.4943 3.0768 22.5063 3.2544L25.9327 16.2264C25.9664 16.38 25.7547 16.4568 25.6752 16.3104L25.668 16.296L20.2661 5.5128C20.2228 5.4264 20.1386 5.3736 20.0448 5.3736C19.9726 5.3736 19.9028 5.4048 19.8595 5.4552C19.8138 5.4984 19.7897 5.5608 19.7897 5.6256C19.7897 5.64 19.8017 5.712 19.8065 5.724L24.3422 16.1016C24.412 16.2504 24.2027 16.368 24.104 16.2312L24.0896 16.2096L18.3243 8.1984C18.2786 8.1432 18.2136 8.112 18.1463 8.112C18.127 8.112 18.0308 8.1504 18.0139 8.16C17.961 8.196 17.9321 8.2536 17.9321 8.3208C17.9321 8.34 17.9562 8.4264 17.9682 8.4432L22.3355 15.0792C22.4245 15.2184 22.2368 15.3672 22.1165 15.2472C22.1165 15.2472 8.44932 1.4928 8.4421 1.4928C8.4421 1.4928 8.4421 1.4928 8.4421 1.4952C7.96086 1.0368 7.33285 0.784797 6.67355 0.784797C5.51617 0.784797 4.53204 1.5792 4.27939 2.7168L0.00599083 23.076C-0.0132587 23.1696 0.00358464 23.2656 0.0565209 23.3448C0.109457 23.4264 0.188861 23.4816 0.282703 23.5008L1.15856 23.688C1.32699 23.688 1.46174 23.5728 1.4858 23.4144L3.74521 11.5416C3.78612 11.3832 4.03396 11.412 4.02433 11.5824L3.32894 23.664C3.32894 23.8368 3.45647 23.976 3.6225 23.9904C3.68506 24 3.75724 24 3.8198 24C3.82943 24 3.87034 24 3.87515 24C4.03636 24 4.17111 23.8752 4.18555 23.712L5.38864 9.7608C5.39827 9.5808 5.6461 9.5904 5.65814 9.7608L6.41368 23.5344C6.42571 23.6808 6.54361 23.7912 6.73611 23.7912C6.74092 23.7912 6.92139 23.7624 6.92139 23.7624C7.05613 23.748 7.1596 23.628 7.1596 23.484L6.93101 8.748C6.93101 8.5776 7.16922 8.5584 7.2005 8.7264L9.6476 22.6248C9.66926 22.7808 9.79919 22.8936 9.9556 22.8936C9.99409 22.8936 10.0326 22.8864 10.112 22.8528C10.2588 22.7952 10.3406 22.6584 10.3141 22.5216L8.4445 8.0352C8.42526 7.8672 8.66347 7.8168 8.714 7.9752V7.98L12.9152 20.9232C12.9633 21.0456 13.074 21.1248 13.2015 21.1248C13.2641 21.1248 13.3243 21.1056 13.3724 21.0696C13.459 21.012 13.5047 20.9232 13.4927 20.7432L10.0663 7.776C10.0254 7.6152 10.2443 7.536 10.3237 7.6848L15.7305 18.4824C15.7738 18.5664 15.858 18.6192 15.9518 18.6192C16.024 18.6192 16.0938 18.588 16.1371 18.5376C16.1804 18.4944 16.2069 18.432 16.2069 18.3672C16.2069 18.3528 16.1948 18.2808 16.19 18.2688L11.6544 7.8912C11.5846 7.7424 11.7939 7.6248 11.8926 7.7616L11.9046 7.7784L17.6723 15.7944C17.718 15.8496 17.7829 15.8808 17.8503 15.8808C17.8696 15.8808 17.9658 15.8424 17.9802 15.8328C18.0356 15.7968 18.0645 15.7392 18.0645 15.6696C18.0645 15.6504 18.0404 15.564 18.0284 15.5472L13.6611 8.9112C13.5721 8.772 13.7598 8.6256 13.8777 8.7408C26.9602 21.7824 27.5424 22.4952 27.5545 22.4952C27.5545 22.4952 27.5545 22.4952 27.5545 22.4928C28.0357 22.9512 28.6637 23.2032 29.323 23.2032C30.478 23.2032 31.4621 22.4088 31.7172 21.2712L35.9906 0.916798C36.0098 0.823198 35.993 0.727199 35.9401 0.647999L35.9352 0.655199Z" fill="#0A0D11"/>
<defs>
<clipPath id="clip0_64440_51559">
<rect width="72" height="16" fill="white" transform="translate(48 4)"/>
</clipPath>
</defs>
</svg>
